<svg aria-hidden="true" style="position: absolute; width: 0; height: 0; overflow: hidden;" version="1.1" xmlns="http://www.w3.org/2000/svg" xmlns:xlink="http://www.w3.org/1999/xlink">
<defs>
<symbol id="chevron" viewBox="0 0 32 32">
<path stroke-linejoin="round" stroke-linecap="round" stroke-miterlimit="4" stroke-width="3.2" d="M8 12l8 8 8-8"></path>
</symbol>
<symbol id="favorite" viewBox="0 0 32 32">
<path stroke-linejoin="round" stroke-linecap="round" stroke-miterlimit="4" stroke-width="2.6667" d="M27.787 6.148c-1.327-1.328-3.161-2.149-5.187-2.149s-3.859 0.821-5.187 2.149l-1.413 1.413-1.413-1.413c-1.325-1.315-3.151-2.128-5.166-2.128-4.051 0-7.335 3.284-7.335 7.335 0 2.015 0.813 3.841 2.128 5.167l11.786 11.784 11.787-11.787c1.328-1.327 2.149-3.161 2.149-5.187s-0.821-3.859-2.149-5.187l-0-0z"></path>
</symbol>
<symbol id="close" viewBox="0 0 32 32">
<path stroke-linejoin="round" stroke-linecap="round" stroke-miterlimit="4" stroke-width="2.4" d="M24 8l-16 16M8 8l16 16"></path>
</symbol>
<symbol id="catalog" viewBox="0 0 24 24">
<path d="M5.016 11.016h13.969l-1.5-4.5h-10.969zM17.484 15.984q0.609 0 1.055-0.445t0.445-1.055-0.445-1.055-1.055-0.445-1.055 0.445-0.445 1.055 0.445 1.055 1.055 0.445zM6.516 15.984q0.609 0 1.055-0.445t0.445-1.055-0.445-1.055-1.055-0.445-1.055 0.445-0.445 1.055 0.445 1.055 1.055 0.445zM18.938 6l2.063 6v8.016q0 0.422-0.281 0.703t-0.703 0.281h-1.031q-0.422 0-0.703-0.281t-0.281-0.703v-1.031h-12v1.031q0 0.422-0.281 0.703t-0.703 0.281h-1.031q-0.422 0-0.703-0.281t-0.281-0.703v-8.016l2.063-6q0.281-0.984 1.453-0.984h10.969q1.172 0 1.453 0.984z"></path>
</symbol>
<symbol id="logo" viewBox="0 0 32 32">
<path d="M10 15.5c-1.3 1.4-3.3 2.5-4.5 2.5-2.7 0-5.5 3-5.5 5.9 0 1.2 0.9 3.4 2 4.9 2 2.7 2.2 2.7 13.3 2.6 13.3 0 16.7-1.4 16.7-6.9 0-3-2.5-6.5-4.7-6.5-0.5 0-2-1.1-3.3-2.5-1.9-2-3.3-2.5-7-2.5s-5.1 0.5-7 2.5zM23.6 16.1c1.3 1.2 3.4 2.7 4.6 3.3 2.8 1.4 3.9 8 1.5 8.9-1 0.4-1.7-0.2-2-1.4-0.8-3-6.1-2.3-6.5 0.8-0.3 2.1-0.9 2.3-5.7 2.3s-5.4-0.2-5.7-2.3c-0.4-2.7-5.5-3.8-6.4-1.3-0.9 2.3-2.4 0.9-2.4-2.3s1.6-5.1 4.5-5.1c1.2 0 3.2-1.1 4.5-2.5 3.1-3.3 10.3-3.5 13.6-0.4zM8 28.5c0 0.8-0.7 1.5-1.5 1.5s-1.5-0.7-1.5-1.5c0-0.8 0.7-1.5 1.5-1.5s1.5 0.7 1.5 1.5zM26 28.5c0 0.8-0.7 1.5-1.5 1.5s-1.5-0.7-1.5-1.5c0-0.8 0.7-1.5 1.5-1.5s1.5 0.7 1.5 1.5z"></path>
</symbol>
<symbol id="burger" viewBox="0 0 32 32">
<path d="M2 6h28v6h-28zM2 14h28v6h-28zM2 22h28v6h-28z"></path>
</symbol>
<symbol id="up" viewBox="0 0 32 32">
<path d="M27.414 12.586l-10-10c-0.781-0.781-2.047-0.781-2.828 0l-10 10c-0.781 0.781-0.781 2.047 0 2.828s2.047 0.781 2.828 0l6.586-6.586v19.172c0 1.105 0.895 2 2 2s2-0.895 2-2v-19.172l6.586 6.586c0.39 0.39 0.902 0.586 1.414 0.586s1.024-0.195 1.414-0.586c0.781-0.781 0.781-2.047 0-2.828z"></path>
</symbol>
</defs>
</svg>
