<svg aria-hidden="true" style="position: absolute; width: 0; height: 0; overflow: hidden;" version="1.1" xmlns="http://www.w3.org/2000/svg" xmlns:xlink="http://www.w3.org/1999/xlink">
<defs>
<symbol id="chevron" viewBox="0 0 32 32">
<path stroke-linejoin="round" stroke-linecap="round" stroke-miterlimit="4" stroke-width="3.2" d="M8 12l8 8 8-8"></path>
</symbol>
<symbol id="favorite" viewBox="0 0 32 32">
<path stroke-linejoin="round" stroke-linecap="round" stroke-miterlimit="4" stroke-width="2.6667" d="M27.787 6.148c-1.327-1.328-3.161-2.149-5.187-2.149s-3.859 0.821-5.187 2.149l-1.413 1.413-1.413-1.413c-1.325-1.315-3.151-2.128-5.166-2.128-4.051 0-7.335 3.284-7.335 7.335 0 2.015 0.813 3.841 2.128 5.167l11.786 11.784 11.787-11.787c1.328-1.327 2.149-3.161 2.149-5.187s-0.821-3.859-2.149-5.187l-0-0z"></path>
</symbol>
<symbol id="close" viewBox="0 0 32 32">
<path stroke-linejoin="round" stroke-linecap="round" stroke-miterlimit="4" stroke-width="2.4" d="M24 8l-16 16M8 8l16 16"></path>
</symbol>
<symbol id="catalog" viewBox="0 0 24 24">
<path d="M5.016 11.016h13.969l-1.5-4.5h-10.969zM17.484 15.984q0.609 0 1.055-0.445t0.445-1.055-0.445-1.055-1.055-0.445-1.055 0.445-0.445 1.055 0.445 1.055 1.055 0.445zM6.516 15.984q0.609 0 1.055-0.445t0.445-1.055-0.445-1.055-1.055-0.445-1.055 0.445-0.445 1.055 0.445 1.055 1.055 0.445zM18.938 6l2.063 6v8.016q0 0.422-0.281 0.703t-0.703 0.281h-1.031q-0.422 0-0.703-0.281t-0.281-0.703v-1.031h-12v1.031q0 0.422-0.281 0.703t-0.703 0.281h-1.031q-0.422 0-0.703-0.281t-0.281-0.703v-8.016l2.063-6q0.281-0.984 1.453-0.984h10.969q1.172 0 1.453 0.984z"></path>
</symbol>
<symbol id="logo" viewBox="0 0 37 32">
<path d="M3.094 16.792c-3.346-1.697-2.957-3.59 0.399-3.392l0.767 1.409 1.521-4.816c0.505-1.576 1.293-3.042 2.686-3.474v-4.825c0.002-0.936 0.761-1.694 1.697-1.694 0.003 0 0.006 0 0.010 0h17.035c0.934 0.003 1.69 0.76 1.691 1.694v4.694h0.304c1.986 0 3.13 1.685 3.611 3.611l1.162 4.67 0.669-1.259c3.45-0.201 3.757 1.804 0.106 3.535l0.608 0.913c2.4 2.467 2.175 4.931 1.801 11.025v2.002c-0.002 0.623-0.506 1.127-1.128 1.129h-4.831c-0.623-0.002-1.127-0.506-1.129-1.128v-0.913h-22.773v0.913c-0.002 0.623-0.506 1.127-1.128 1.129h-4.804c-0.623-0.002-1.127-0.506-1.129-1.128v-2.613c-0.002-0.026-0.002-0.057-0.002-0.088s0.001-0.062 0.003-0.092l-0 0.004c-0.353-4.67-0.867-8.892 2.853-11.301zM27.27 8.275h-17.212c-1.521 0-2.288 1.311-2.738 2.753l-1.469 4.843h26.412l-1.165-4.843c-0.304-1.475-1.238-2.738-2.738-2.738zM14.404 6.346l-0.764-1.469c0.438-0.225 0.657-0.694 0.657-1.399 0-1.032-4.766-2.191-1.521-1.548h-2.23v4.417h1.415v-1.314h0.304l0.578 1.314h1.558zM12.293 3.048l-0.002 0c0.018-0.001 0.037-0.002 0.055-0.002 0.114 0 0.224 0.021 0.319 0.056 0.076 0.033 0.116 0.116 0.116 0.243v0.31c0 0.128-0.040 0.21-0.116 0.243l0.006-0.002c-0.101 0.038-0.211 0.058-0.325 0.058-0.018 0-0.037-0.001-0.052-0.001h-0.325v-0.894zM17.842 4.676v-1.025h-1.415v-0.59h1.521l0.183-1.132h-3.112v4.417h3.139v-1.129h-1.731v-0.538h1.427zM22.816 6.346v-4.417h-1.421v1.91h-0.027v0.001c0-0.005 0-0.009 0-0.014 0-0.119-0.027-0.232-0.073-0.327l-1.074-1.57h-1.329v4.417h1.433v-1.907h0.027v-0.001c-0 0.005-0 0.010-0 0.015 0 0.118 0.026 0.23 0.070 0.326l1.083 1.567zM26.834 3.060v-1.132h-3.465v1.132h1.025v3.285h1.415v-3.285h1.043zM9.242 22.338l-4.277-0.538c-1.010-0.113-1.281 0.304-0.937 1.183l0.462 1.123c0.134 0.267 0.331 0.485 0.572 0.641l0.006 0.004c0.275 0.162 0.605 0.26 0.957 0.265h0.001l3.815 0.030c0.913 0 1.32-0.371 1.031-1.217-0.213-0.767-0.839-1.347-1.618-1.489l-0.013-0.002zM28.14 22.338l-0.013 0.002c-0.779 0.142-1.405 0.721-1.618 1.489-0.289 0.846 0.119 1.217 1.031 1.217l3.816-0.030c0.352-0.005 0.682-0.102 0.957-0.265l0.006-0.004c0.241-0.156 0.437-0.374 0.572-0.641l0.462-1.123c0.344-0.879 0.073-1.296-0.937-1.183l-4.277 0.538z"></path>
</symbol>
<symbol id="burger" viewBox="0 0 32 32">
<path d="M2 6h28v6h-28zM2 14h28v6h-28zM2 22h28v6h-28z"></path>
</symbol>
<symbol id="up" viewBox="0 0 32 32">
<path d="M27.414 12.586l-10-10c-0.781-0.781-2.047-0.781-2.828 0l-10 10c-0.781 0.781-0.781 2.047 0 2.828s2.047 0.781 2.828 0l6.586-6.586v19.172c0 1.105 0.895 2 2 2s2-0.895 2-2v-19.172l6.586 6.586c0.39 0.39 0.902 0.586 1.414 0.586s1.024-0.195 1.414-0.586c0.781-0.781 0.781-2.047 0-2.828z"></path>
</symbol>
</defs>
</svg>
