<svg xmlns="http://www.w3.org/2000/svg" version="1.1" xmlns:xlink="http://www.w3.org/1999/xlink" xmlns:svgjs="http://svgjs.dev/svgjs" viewBox="0 0 800 800" preserveAspectRatio="xMidYMid slice"><defs><pattern id="pppixelate-pattern" width="20" height="20" patternUnits="userSpaceOnUse" patternTransform="translate(196 179) scale(40) rotate(0)" shape-rendering="crispEdges">
<rect width="1" height="1" x="3" y="3" fill="hsl(50, 98%, 50%)"></rect><rect width="1" height="1" x="4" y="3" fill="hsl(50, 98%, 50%)"></rect><rect width="1" height="1" x="5" y="3" fill="hsl(50, 98%, 50%)"></rect><rect width="1" height="1" x="6" y="3" fill="hsl(50, 98%, 50%)"></rect><rect width="1" height="1" x="7" y="3" fill="hsl(50, 98%, 50%)"></rect><rect width="1" height="1" x="8" y="3" fill="hsl(50, 98%, 50%)"></rect><rect width="1" height="1" x="3" y="4" fill="hsl(190, 100%, 70%)"></rect><rect width="1" height="1" x="4" y="4" fill="hsl(190, 100%, 70%)"></rect><rect width="1" height="1" x="5" y="4" fill="hsl(190, 100%, 70%)"></rect><rect width="1" height="1" x="6" y="4" fill="hsl(190, 100%, 70%)"></rect><rect width="1" height="1" x="7" y="4" fill="hsl(190, 100%, 70%)"></rect><rect width="1" height="1" x="8" y="4" fill="hsl(190, 100%, 70%)"></rect><rect width="1" height="1" x="1" y="5" fill="hsl(50, 98%, 50%)"></rect><rect width="1" height="1" x="2" y="5" fill="hsl(50, 98%, 50%)"></rect><rect width="1" height="1" x="3" y="5" fill="hsl(50, 98%, 50%)"></rect><rect width="1" height="1" x="4" y="5" fill="hsl(50, 98%, 50%)"></rect><rect width="1" height="1" x="5" y="5" fill="hsl(50, 98%, 50%)"></rect><rect width="1" height="1" x="6" y="5" fill="hsl(50, 98%, 50%)"></rect><rect width="1" height="1" x="7" y="5" fill="hsl(50, 98%, 50%)"></rect><rect width="1" height="1" x="8" y="5" fill="hsl(50, 98%, 50%)"></rect><rect width="1" height="1" x="9" y="5" fill="hsl(50, 98%, 50%)"></rect><rect width="1" height="1" x="0" y="6" fill="hsl(0, 0%, 90%)"></rect><rect width="1" height="1" x="1" y="6" fill="hsl(50, 98%, 50%)"></rect><rect width="1" height="1" x="2" y="6" fill="hsl(0, 0%, 0%)"></rect><rect width="1" height="1" x="3" y="6" fill="hsl(50, 98%, 50%)"></rect><rect width="1" height="1" x="4" y="6" fill="hsl(50, 98%, 50%)"></rect><rect width="1" height="1" x="5" y="6" fill="hsl(50, 98%, 50%)"></rect><rect width="1" height="1" x="6" y="6" fill="hsl(50, 98%, 50%)"></rect><rect width="1" height="1" x="7" y="6" fill="hsl(0, 0%, 0%)"></rect><rect width="1" height="1" x="8" y="6" fill="hsl(50, 98%, 50%)"></rect><rect width="1" height="1" x="9" y="6" fill="hsl(10, 75%, 40%)"></rect><rect width="1" height="1" x="0" y="7" fill="hsl(50, 98%, 50%)"></rect><rect width="1" height="1" x="1" y="7" fill="hsl(0, 0%, 0%)"></rect><rect width="1" height="1" x="3" y="7" fill="hsl(0, 0%, 0%)"></rect><rect width="1" height="1" x="4" y="7" fill="hsl(50, 98%, 50%)"></rect><rect width="1" height="1" x="5" y="7" fill="hsl(50, 98%, 50%)"></rect><rect width="1" height="1" x="6" y="7" fill="hsl(0, 0%, 0%)"></rect><rect width="1" height="1" x="8" y="7" fill="hsl(0, 0%, 0%)"></rect><rect width="1" height="1" x="9" y="7" fill="hsl(50, 98%, 50%)"></rect><rect width="1" height="1" x="2" y="8" fill="hsl(0, 0%, 0%)"></rect><rect width="1" height="1" x="7" y="8" fill="hsl(0, 0%, 0%)"></rect>
</pattern>
</defs><rect width="100%" height="100%" fill="url(#pppixelate-pattern)"></rect></svg>